<svg id="Layer_1" data-name="Layer 1" xmlns="http://www.w3.org/2000/svg" width="293" height="55" viewBox="0 0 293 55"><title>logo-theme</title><g id="theme"><rect x="125" y="10" width="1.5" height="35" fill="#363535"/><polygon points="10 10 10 45 15.82 45 15.82 28.96 20.18 45 26 45 26 10 20.18 10 20.18 26.04 15.82 10 10 10" fill="#ff5307"/><polygon points="27 10 32.82 10 35.24 22.67 37.18 10 43 10 38.61 31.69 38.61 45 31.33 45 31.33 31.88 27 10" fill="#ff5307"/><polygon points="63 10 75 10 75 17.29 70.5 17.29 70.5 23.13 75 23.13 75 30.42 70.5 30.42 70.5 37.71 75 37.71 75 45 63 45 63 10" fill="#21428d"/><path d="M53.33,30.42v7.29a1.34,1.34,0,1,1-2.67,0V17.29a1.34,1.34,0,1,1,2.67,0v5.83H60V18.75C60,13.94,56.4,10,52,10s-8,3.94-8,8.75v17.5C44,41.06,47.6,45,52,45s8-3.94,8-8.75V30.42Z" fill="#ff5307"/><path d="M86.45,10H77V45h7.27V29H85a1.46,1.46,0,0,1,1.45,1.46V45H93V32.6c0-3.37-1.29-5.15-3.2-6,1.91-.82,3.2-2.59,3.2-6V16.56C93,11.46,90.05,10,86.45,10Zm0,12.4A1.46,1.46,0,0,1,85,23.85h-.73v-8H85a1.46,1.46,0,0,1,1.45,1.46Z" fill="#21428d"/><path d="M111,22.6V18.75c0-4.81-.94-8.75-8-8.75s-8,3.94-8,8.75V21.2c0,3.15.75,4,1.55,5.07,2.51,3.39,7.79,5,7.79,8.53v3.44a1.34,1.34,0,1,1-2.67,0V32.4H95v3.85c0,4.81.94,8.75,8,8.75s8-3.94,8-8.75V33.8c0-3.15-.75-4-1.55-5.07-2.51-3.39-7.79-5-7.79-8.53V16.77a1.34,1.34,0,1,1,2.67,0V22.6Z" fill="#21428d"/><path d="M143.55,18.66v6.09H141V14.17h2.61l3,5.78V14.17h2.54V24.74h-2.42Z" fill="#363535"/><path d="M153.5,20.45l-3.27-6.27H153l1.74,3.93,1.73-3.93h2.81l-3.25,6.27v4.29H153.5Z" fill="#363535"/><path d="M159.4,19.47c0-3.23,1.79-5.47,4.61-5.47a3.86,3.86,0,0,1,3.79,2.77l-2.11.9A1.79,1.79,0,0,0,164,16.27c-1.25,0-2,1.35-2,3.2s.75,3.2,2,3.2a1.83,1.83,0,0,0,1.68-1.52l2.12.9a3.94,3.94,0,0,1-3.8,2.88C161.19,24.93,159.4,22.68,159.4,19.47Z" fill="#363535"/><path d="M172.79,14.17h6.37v2.2h-3.8v1.9H179v2.2h-3.69v2.06h3.8v2.2h-6.37Z" fill="#363535"/><path d="M188.78,18l-2.15,6.77h-1.09L183.4,18v6.77h-2.52V14.17h3.41L186.08,20l1.81-5.78h3.37V24.74h-2.49Z" fill="#363535"/><path d="M193.26,14.17h4.25a3.26,3.26,0,0,1,3.44,3.49,3.23,3.23,0,0,1-3.44,3.44h-1.68v3.64h-2.57Zm3.93,2.2h-1.36V18.9h1.36a1.14,1.14,0,0,0,1.16-1.25A1.15,1.15,0,0,0,197.19,16.38Z" fill="#363535"/><path d="M202.39,14.17H205v8.34h3.41v2.23h-6Z" fill="#363535"/><path d="M213.7,14c2.85,0,4.61,2.28,4.61,5.47s-1.76,5.47-4.61,5.47-4.61-2.28-4.61-5.47S210.85,14,213.7,14Zm0,2.27c-1.28,0-2,1.36-2,3.2s.71,3.2,2,3.2,2-1.38,2-3.2S215,16.27,213.7,16.27Z" fill="#363535"/><path d="M221.67,20.45l-3.26-6.27h2.8L223,18.1l1.73-3.93h2.81l-3.25,6.27v4.29h-2.57Z" fill="#363535"/><path d="M228.52,14.17h6.37v2.2h-3.8v1.9h3.69v2.2h-3.69v2.06h3.8v2.2h-6.37Z" fill="#363535"/><path d="M236.62,14.17H243v2.2h-3.8v1.9h3.69v2.2h-3.69v2.06H243v2.2h-6.37Z" fill="#363535"/><path d="M245.25,21.59a3.55,3.55,0,0,0,2.57,1.12c.76,0,1.22-.4,1.22-.92s-.62-.94-1.51-1.27c-1.36-.49-3.19-1.08-3.19-3.31,0-1.7,1.32-3.22,3.71-3.22a5,5,0,0,1,3.39,1.2l-1.19,1.9a3.32,3.32,0,0,0-2.23-.87c-.71,0-1.06.36-1.06.84s.6.86,1.51,1.19c1.36.49,3.17,1.16,3.17,3.3s-1.39,3.38-3.79,3.38A5.24,5.24,0,0,1,244,23.56Z" fill="#363535"/><path d="M253.17,18.1a2.88,2.88,0,0,0,1.3-1.51.87.87,0,0,1-.33.06A1.18,1.18,0,0,1,253,15.41a1.38,1.38,0,0,1,1.38-1.4,1.6,1.6,0,0,1,1.54,1.76,3.87,3.87,0,0,1-1.74,3.12Z" fill="#363535"/><path d="M144.52,38.16h-1v3.64H141V31.24h4.31a3.26,3.26,0,0,1,3.37,3.44,3.08,3.08,0,0,1-1.71,3l1.79,4.09h-2.85Zm.4-4.72h-1.35V36h1.35a1.26,1.26,0,0,0,0-2.52Z" fill="#363535"/><path d="M150.4,31.24h6.37v2.2H153v1.9h3.69v2.2H153v2.06h3.8v2.2H150.4Z" fill="#363535"/><path d="M160.24,33.47H158V31.24h7.08v2.23H162.8v8.34h-2.57Z" fill="#363535"/><path d="M166.53,31.24h2.57V41.81h-2.57Z" fill="#363535"/><path d="M174.61,38.16h-1v3.64h-2.57V31.24h4.31a3.26,3.26,0,0,1,3.37,3.44,3.08,3.08,0,0,1-1.71,3l1.79,4.09H176Zm.4-4.72h-1.35V36H175a1.26,1.26,0,0,0,0-2.52Z" fill="#363535"/><path d="M180.49,31.24h6.37v2.2h-3.8v1.9h3.69v2.2h-3.69v2.06h3.8v2.2h-6.37Z" fill="#363535"/><path d="M196.48,35l-2.15,6.77h-1.09L191.1,35v6.77h-2.52V31.24H192L193.78,37l1.81-5.78H199V41.81h-2.49Z" fill="#363535"/><path d="M201,31.24h6.37v2.2h-3.8v1.9h3.69v2.2h-3.69v2.06h3.8v2.2H201Z" fill="#363535"/><path d="M211.61,35.72v6.09h-2.55V31.24h2.61l3,5.78V31.24h2.54V41.81h-2.42Z" fill="#363535"/><path d="M221,33.47h-2.27V31.24h7.08v2.23h-2.25v8.34H221Z" fill="#363535"/><path d="M231.43,38.66A3.55,3.55,0,0,0,234,39.78c.76,0,1.22-.4,1.22-.92s-.62-.94-1.51-1.27c-1.36-.49-3.19-1.08-3.19-3.31,0-1.7,1.32-3.22,3.71-3.22a5,5,0,0,1,3.39,1.2l-1.19,1.9a3.32,3.32,0,0,0-2.23-.87c-.71,0-1.06.36-1.06.84s.6.86,1.51,1.19c1.36.49,3.17,1.16,3.17,3.3S236.43,42,234,42a5.24,5.24,0,0,1-3.82-1.38Z" fill="#363535"/><path d="M241.51,37.51l-3.26-6.27h2.8l1.74,3.93,1.73-3.93h2.81l-3.25,6.27v4.29h-2.57Z" fill="#363535"/><path d="M248.66,38.66a3.55,3.55,0,0,0,2.57,1.12c.76,0,1.22-.4,1.22-.92s-.62-.94-1.51-1.27c-1.36-.49-3.19-1.08-3.19-3.31,0-1.7,1.32-3.22,3.71-3.22a5,5,0,0,1,3.39,1.2l-1.19,1.9a3.32,3.32,0,0,0-2.23-.87c-.71,0-1.06.36-1.06.84s.6.86,1.51,1.19c1.36.49,3.17,1.16,3.17,3.3S253.65,42,251.25,42a5.24,5.24,0,0,1-3.82-1.38Z" fill="#363535"/><path d="M258.12,33.47h-2.27V31.24h7.08v2.23h-2.25v8.34h-2.57Z" fill="#363535"/><path d="M264.41,31.24h6.37v2.2H267v1.9h3.69v2.2H267v2.06h3.8v2.2h-6.37Z" fill="#363535"/><path d="M280.4,35l-2.15,6.77h-1.09L275,35v6.77h-2.52V31.24h3.41L277.7,37l1.81-5.78h3.37V41.81H280.4Z" fill="#363535"/></g></svg>